<svg width="200" height="200" viewBox="0 0 200 200" fill="none" xmlns="http://www.w3.org/2000/svg">
<g clip-path="url(#clip0_718_106)">
<circle cx="100" cy="100" r="96" stroke="black" stroke-width="8"/>
<path d="M100 40L121.651 100H78.3494L100 40Z" fill="#FF4D4D"/>
<path d="M100 160L78.3494 100H121.651L100 160Z" fill="#444444"/>
<circle cx="100" cy="100" r="4" fill="black"/>
<path d="M102.149 21.2727H103.994V26.9403C103.994 27.5767 103.842 28.1335 103.538 28.6108C103.237 29.0881 102.815 29.4602 102.273 29.7273C101.73 29.9915 101.098 30.1236 100.376 30.1236C99.652 30.1236 99.0185 29.9915 98.4759 29.7273C97.9332 29.4602 97.5114 29.0881 97.2102 28.6108C96.9091 28.1335 96.7585 27.5767 96.7585 26.9403V21.2727H98.6037V26.7827C98.6037 27.1151 98.6761 27.4105 98.821 27.669C98.9688 27.9276 99.1761 28.1307 99.4432 28.2784C99.7102 28.4261 100.021 28.5 100.376 28.5C100.734 28.5 101.045 28.4261 101.31 28.2784C101.577 28.1307 101.783 27.9276 101.928 27.669C102.075 27.4105 102.149 27.1151 102.149 26.7827V21.2727Z" fill="black"/>
</g>
<defs>
<clipPath id="clip0_718_106">
<rect width="200" height="200" fill="white"/>
</clipPath>
</defs>
</svg>
